<?xml version="1.0" standalone="no"?>
<!DOCTYPE svg PUBLIC "-//W3C//DTD SVG 20010904//EN" "http://www.w3.org/TR/2001/REC-SVG-20010904/DTD/svg10.dtd">
<svg version="1.0" xmlns="http://www.w3.org/2000/svg" width="400.000000pt" height="400.000000pt" viewBox="0 0 400.000000 400.000000" preserveAspectRatio="xMidYMid meet">
    <g transform="translate(0.000000,400.000000) scale(0.100000,-0.100000)" fill="#975c53" stroke="none">
        <path d="M1906 3720 c-193 -18 -411 -77 -591 -160 -49 -23 -91 -43 -93 -45 -2 -2 123 -172 279 -377 155 -205 283 -374 285 -376 1 -2 226 178 499 399 l498 402 -37 19 c-72 37 -274 98 -387 117 -138 23 -332 32 -453 21z"/>
        <path d="M3071 3639 c-30 -5 -56 -10 -57 -12 -1 -1 -127 -164 -279 -362 -153 -198 -308 -398 -344 -444 -36 -47 -58 -80 -50 -75 9 5 292 184 628 398 l612 389 -28 24 c-40 33 -120 69 -181 82 -62 13 -223 13 -301 0z"/>
        <path d="M3070 2969 c-321 -236 -588 -433 -593 -438 -6 -6 -3 -8 9 -5 10 2 262 51 558 108 330 64 542 110 548 118 16 26 67 194 82 277 25 129 17 347 -13 365 -4 3 -270 -188 -591 -425z"/>
        <path d="M759 3152 c-242 -250 -405 -582 -465 -947 -17 -105 -24 -389 -11 -457 l8 -37 424 282 c233 155 425 287 425 292 0 13 -311 908 -319 917 -4 4 -32 -18 -62 -50z"/>
        <path d="M1778 2610 c-126 -22 -229 -79 -315 -174 -50 -54 -122 -180 -110 -192 15 -15 46 11 68 59 30 65 138 176 204 210 189 95 406 71 557 -63 36 -31 53 -40 69 -35 20 7 20 8 -12 42 -50 53 -144 111 -214 132 -76 24 -183 33 -247 21z"/>
        <path d="M2330 2407 c-69 -16 -24 -19 55 -3 56 11 62 14 30 14 -22 0 -60 -5 -85 -11z"/>
        <path d="M2540 2416 c0 -2 7 -7 16 -10 8 -3 12 -2 9 4 -6 10 -25 14 -25 6z"/>
        <path d="M2370 2375 c-52 -13 -107 -24 -122 -24 -16 -1 -28 -5 -28 -9 0 -4 13 -66 29 -138 17 -71 33 -150 37 -177 3 -26 10 -50 15 -53 11 -6 189 23 226 37 13 5 44 22 68 39 35 24 44 36 48 67 7 59 -19 81 -102 85 l-66 3 52 32 c55 34 70 62 59 108 -13 51 -85 62 -216 30z m127 -107 l-11 -33 -6 43 c-4 23 -12 48 -18 54 -7 7 -12 17 -12 23 0 5 14 -4 30 -22 27 -30 28 -35 17 -65z m-53 50 c31 -44 11 -108 -34 -108 -21 0 -27 13 -36 80 l-7 50 31 0 c21 0 36 -7 46 -22z m-155 -50 c20 -110 41 -262 36 -266 -5 -5 -6 2 -41 168 -14 69 -28 128 -30 132 -6 10 4 28 15 28 5 0 14 -28 20 -62z m185 -132 c9 -19 16 -43 16 -54 0 -26 -34 -67 -48 -58 -14 8 -37 110 -29 130 11 28 44 18 61 -18z m56 -42 c0 -59 -16 -64 -23 -6 -2 26 -8 56 -12 67 -8 20 -8 20 13 1 16 -14 22 -31 22 -62z"/>
        <path d="M2431 2274 c0 -11 3 -14 6 -6 3 7 2 16 -1 19 -3 4 -6 -2 -5 -13z"/>
        <path d="M2401 2254 c0 -11 3 -14 6 -6 3 7 2 16 -1 19 -3 4 -6 -2 -5 -13z"/>
        <path d="M2436 2105 c4 -16 11 -34 16 -40 7 -7 8 -1 3 15 -12 40 -26 59 -19 25z"/>
        <path d="M2607 2349 c4 -13 8 -18 11 -10 2 7 -1 18 -6 23 -8 8 -9 4 -5 -13z"/>
        <path d="M1890 2320 c0 -5 9 -10 19 -10 11 0 28 -3 38 -6 16 -6 16 -5 -2 9 -22 18 -55 22 -55 7z"/>
        <path d="M1822 2269 c-76 -38 -101 -103 -66 -170 15 -29 14 -32 -10 -68 -25 -36 -26 -38 -12 -91 17 -64 35 -80 94 -80 32 0 55 8 86 29 28 20 46 27 53 20 6 -6 43 -4 105 8 l96 17 -47 32 c-75 51 -79 59 -46 94 18 19 25 34 19 39 -13 14 -64 25 -64 15 0 -5 -7 -18 -15 -28 -15 -19 -16 -19 -45 9 -35 34 -36 42 -10 75 28 36 26 88 -2 99 -57 21 -93 21 -136 0z m82 -35 c21 -8 20 -27 -2 -47 -17 -16 -19 -16 -31 7 -20 36 -4 54 33 40z m-118 -30 c-3 -9 -2 -33 4 -54 8 -29 31 -56 98 -116 48 -43 94 -84 102 -91 8 -7 10 -13 4 -13 -6 0 -56 39 -112 86 -68 57 -104 95 -108 112 -3 15 -8 33 -10 40 -4 14 12 52 22 52 4 0 3 -7 0 -16z m-10 -231 c1 -46 5 -60 23 -75 17 -13 19 -18 8 -18 -39 0 -70 79 -48 126 6 13 12 24 13 24 2 0 3 -26 4 -57z m121 -17 c-7 -20 -39 -11 -60 16 -30 40 -12 53 29 22 19 -15 33 -32 31 -38z"/>
        <path d="M3069 2087 c-344 -111 -627 -206 -629 -210 -2 -7 703 -1050 731 -1082 19 -20 163 145 269 305 158 241 253 520 280 826 13 146 2 366 -18 363 -4 0 -289 -91 -633 -202z"/>
        <path d="M1745 2269 c-11 -17 1 -21 15 -4 8 9 8 15 2 15 -6 0 -14 -5 -17 -11z"/>
        <path d="M2578 2233 c7 -3 16 -2 19 1 4 3 -2 6 -13 5 -11 0 -14 -3 -6 -6z"/>
        <path d="M1462 2162 c46 -78 57 -86 30 -24 -15 34 -33 62 -40 62 -9 0 -6 -12 10 -38z"/>
        <path d="M2001 2186 c-8 -9 -11 -19 -7 -23 9 -9 29 13 24 27 -2 8 -8 7 -17 -4z"/>
        <path d="M1369 2106 c-19 -46 -37 -84 -42 -85 -4 -1 -29 27 -55 61 -26 34 -52 63 -58 65 -16 5 -88 -398 -73 -411 2 -2 18 -2 34 1 l30 4 -3 76 c-2 41 -1 87 3 101 6 24 9 21 45 -39 21 -35 52 -80 68 -99 l29 -35 19 103 c10 56 21 102 25 102 3 0 21 -38 39 -85 18 -47 37 -85 42 -85 15 0 135 57 141 67 10 15 -186 343 -204 343 -4 0 -22 -38 -40 -84z m81 -172 c23 -58 40 -110 38 -116 -2 -5 -24 37 -49 94 -39 89 -49 128 -34 128 2 0 22 -48 45 -106z m-176 -12 c26 -46 45 -86 43 -89 -8 -7 -97 142 -97 162 0 24 -1 25 54 -73z"/>
        <path d="M1511 2160 c14 -31 19 -36 19 -24 0 6 -7 19 -16 30 -14 18 -14 18 -3 -6z"/>
        <path d="M2231 2154 c0 -11 3 -14 6 -6 3 7 2 16 -1 19 -3 4 -6 -2 -5 -13z"/>
        <path d="M1167 2143 c-3 -5 -8 -38 -11 -73 l-6 -65 15 69 c13 65 14 89 2 69z"/>
        <path d="M2080 2130 c20 -13 33 -13 25 0 -3 6 -14 10 -23 10 -15 0 -15 -2 -2 -10z"/>
        <path d="M2242 2110 c0 -14 2 -19 5 -12 2 6 2 18 0 25 -3 6 -5 1 -5 -13z"/>
        <path d="M1122 2080 c0 -19 2 -27 5 -17 2 9 2 25 0 35 -3 9 -5 1 -5 -18z"/>
        <path d="M1300 2080 c12 -16 24 -30 26 -30 3 0 -4 14 -16 30 -12 17 -24 30 -26 30 -3 0 4 -13 16 -30z"/>
        <path d="M1721 2088 c-1 -14 -4 -35 -7 -45 -5 -13 -1 -11 11 5 13 18 15 29 7 45 -10 21 -11 21 -11 -5z"/>
        <path d="M2661 2090 c-1 -8 -4 -26 -7 -40 -5 -22 -4 -23 6 -7 6 10 9 28 7 40 -2 12 -5 15 -6 7z"/>
        <path d="M2251 2064 c0 -11 3 -14 6 -6 3 7 2 16 -1 19 -3 4 -6 -2 -5 -13z"/>
        <path d="M2590 2020 c-13 -8 -13 -10 2 -10 9 0 20 5 23 10 8 13 -5 13 -25 0z"/>
        <path d="M2134 1985 c11 -8 22 -12 25 -9 6 6 -19 24 -34 24 -5 -1 -1 -7 9 -15z"/>
        <path d="M2310 1940 c-11 -8 -7 -9 15 -4 37 8 45 14 19 14 -10 0 -26 -5 -34 -10z"/>
        <path d="M2329 1893 c-9 -2 -25 -23 -35 -46 -25 -56 -137 -168 -199 -200 -182 -91 -391 -73 -541 49 -29 23 -47 31 -63 27 l-22 -6 23 -25 c13 -14 50 -42 83 -64 208 -136 496 -101 672 83 44 46 113 154 113 176 0 13 -3 14 -31 6z"/>
        <path d="M1920 1864 c-14 -8 -17 -13 -7 -10 10 3 27 6 38 6 10 0 19 5 19 10 0 14 -21 12 -50 -6z"/>
        <path d="M1988 1873 c6 -2 18 -2 25 0 6 3 1 5 -13 5 -14 0 -19 -2 -12 -5z"/>
        <path d="M1266 1788 c15 -31 31 -55 36 -52 9 6 -11 43 -43 85 -14 17 -12 8 7 -33z"/>
        <path d="M1379 1790 c-7 -35 -4 -48 7 -38 3 4 4 21 2 40 l-3 33 -6 -35z"/>
        <path d="M1595 1800 c-16 -7 -17 -9 -3 -9 9 -1 20 4 23 9 7 11 7 11 -20 0z"/>
        <path d="M1230 1743 c0 -13 5 -23 10 -23 13 0 13 11 0 30 -8 12 -10 11 -10 -7z"/>
        <path d="M1188 1713 c6 -2 18 -2 25 0 6 3 1 5 -13 5 -14 0 -19 -2 -12 -5z"/>
        <path d="M755 1446 l-340 -183 -24 -59 c-44 -109 -73 -243 -78 -364 -5 -112 8 -230 27 -230 9 0 -25 -44 413 543 196 262 353 477 349 476 -4 0 -160 -83 -347
        -183z"/>
        <path d="M832 942 l-413 -475 28 -23 c44 -37 122 -71 191 -84 70 -14 279 -9 322 8 25 9 33 37 158 527 73 285 132 518 130 520 -2 1 -189 -212 -416 -473z"/>
        <path d="M1508 932 c-152 -257 -280 -474 -283 -483 -5 -13 9 -23 67 -47 378 -156 806 -169 1203 -37 118 40 275 110 275 124 0 7 -858 801 -966 893 -19 17 -26 7 -296 -450z"/>
    </g>
</svg>